<svg width="216" height="371" viewBox="0 0 216 371" fill="none" xmlns="http://www.w3.org/2000/svg">
<g clip-path="url(#clip0_130_1071)">
<path d="M100.908 103.282L17.7645 147.862V147.945L132.684 176.172L215.827 130.86L100.908 103.282Z" fill="#00EEC9"/>
<path d="M158.109 349.611L184.396 334.4L187.831 326.978L184.396 292.59L158.109 306.063V349.611Z" fill="#002930"/>
<path d="M215.827 130.861V326.027L194.728 337.343V289.994L159.335 308.486V356.32L132.684 370.607V176.172L215.827 130.861Z" fill="#00EEC9"/>
<g opacity="0.14">
<path d="M100.908 103.282L17.7645 147.862V147.945L132.684 176.172L215.827 130.86L100.908 103.282Z" fill="#002930"/>
</g>
<g opacity="0.14">
<path d="M215.827 130.861V326.027L194.728 337.343V289.994L159.335 308.486V356.32L132.684 370.607V176.172L215.827 130.861Z" fill="#002930"/>
</g>
<path d="M17.7645 147.872V342.7L132.684 370.607V176.172L17.7645 147.872Z" fill="#7DF6E3"/>
<path d="M132.739 291.932L132.602 291.904L17.6827 265.158L17.8463 264.445L132.639 291.164L215.655 246.648L216 247.288L132.739 291.932Z" fill="#002930"/>
<path d="M146.896 180.879L204.224 149.645V241.511L146.896 272.754V180.879Z" fill="#FEFCF3"/>
<path d="M194.901 303.184L194.564 302.544L215.655 291.228L216 291.868L194.901 303.184Z" fill="#002930"/>
<path d="M132.739 336.521L132.602 336.484L17.6827 309.528L17.8463 308.824L132.639 335.744L159.163 321.521L159.499 322.16L132.739 336.521Z" fill="#002930"/>
<path d="M194.728 337.343L184.396 334.4V295.14L194.728 289.994V337.343Z" fill="white"/>
<path d="M198.063 153V239.189L146.896 266.493V180.879L198.063 153Z" fill="#002930"/>
<path d="M198.201 238.868L197.946 239.553L204.106 241.876L204.361 241.191L198.201 238.868Z" fill="#002930"/>
<path d="M92.2028 169.864L19.9635 153.448C17.61 152.917 15.3293 153.685 13.7663 155.221L2.9259 162.049L11.7491 170.477V207.927C11.7491 212.9 15.1748 217.214 19.9998 218.311L74.9744 230.807L86.1964 241.52L97.0096 234.545C98.836 233.64 100.135 231.748 100.135 229.499V179.846C100.135 175.066 96.8461 170.925 92.2118 169.874L92.2028 169.864Z" fill="#00EEC9"/>
<g opacity="0.2">
<path d="M92.2028 169.864L19.9635 153.448C17.61 152.917 15.3293 153.685 13.7663 155.221L2.9259 162.049L11.7491 170.477V207.927C11.7491 212.9 15.1748 217.214 19.9998 218.311L74.9744 230.807L86.1964 241.52L97.0096 234.545C98.836 233.64 100.135 231.748 100.135 229.499V179.846C100.135 175.066 96.8461 170.925 92.2118 169.874L92.2028 169.864Z" fill="#002930"/>
</g>
<path d="M2.91684 164.215C3.45296 163.493 5.77007 162.588 6.66965 162.204C7.56924 161.821 22.6441 165.056 22.6441 165.056L23.7163 208.604C23.7163 208.604 23.9344 210.167 25.7336 211.2C27.5327 212.232 86.3237 226.876 86.3237 226.876C86.3237 226.876 87.1869 240.094 84.3519 240.615C81.5168 241.136 6.03358 222.598 6.03358 222.598L1.78101 216.117L2.92593 164.215H2.91684Z" fill="#FEFCF3"/>
<path d="M20.7995 166.263V207.561C20.7995 210.404 22.7258 212.881 25.4609 213.576L85.8966 228.814C85.8966 228.814 87.2596 185.267 85.1152 182.333C82.9707 179.398 20.7904 166.263 20.7904 166.263H20.7995Z" fill="#002930"/>
<path d="M23.5674 210.88L4.77322 220.727L5.1048 221.367L23.899 211.521L23.5674 210.88Z" fill="#002930"/>
<path d="M80.8171 177.168L8.57784 160.751C4.36161 159.791 0.363464 163.018 0.363464 167.36V215.231C0.363464 220.203 3.78915 224.518 8.61419 225.615L81.9257 242.278C85.4241 243.074 88.7498 240.395 88.7498 236.794V187.141C88.7498 182.36 85.4604 178.219 80.8262 177.168H80.8171ZM85.1242 236.785C85.1242 238.01 84.1065 238.777 83.1615 238.777C83.0161 238.777 82.8616 238.759 82.7162 238.723L9.40473 222.068C6.20621 221.337 3.97088 218.53 3.97088 215.231V167.36C3.97088 165.632 5.36115 164.215 7.07854 164.215C7.3057 164.215 7.55105 164.243 7.77821 164.298L80.0175 180.715C83.0252 181.4 85.1242 184.042 85.1242 187.141V236.785Z" fill="#00EEC9"/>
<path d="M83.1615 242.781C82.7253 242.781 82.2801 242.735 81.8348 242.635L8.53241 225.962C3.50747 224.819 0 220.404 0 215.221V167.351C0 165.166 0.972277 163.137 2.6624 161.775C4.35253 160.413 6.54243 159.91 8.65963 160.385L80.8989 176.802C85.733 177.899 89.1042 182.15 89.1042 187.132V236.776C89.1042 238.604 88.2864 240.313 86.8689 241.456C85.7966 242.315 84.4972 242.772 83.1615 242.772V242.781ZM7.08763 160.943C5.66102 160.943 4.26166 161.427 3.11674 162.351C1.59926 163.576 0.726936 165.395 0.726936 167.36V215.231C0.726936 220.066 4.00724 224.189 8.69597 225.258L82.0075 241.922C83.5613 242.278 85.1787 241.904 86.4236 240.898C87.6685 239.893 88.3863 238.394 88.3863 236.794V187.15C88.3863 182.506 85.2424 178.557 80.7444 177.534L8.49607 161.108C8.02356 160.998 7.55105 160.952 7.07854 160.952L7.08763 160.943ZM83.1706 239.143C82.9979 239.143 82.8253 239.125 82.6436 239.079L9.32296 222.415C5.96088 221.647 3.61651 218.695 3.61651 215.221V167.351C3.61651 165.422 5.17033 163.85 7.07854 163.85C7.34206 163.85 7.60557 163.877 7.86 163.941L80.0993 180.358C83.2705 181.08 85.4877 183.868 85.4877 187.141V236.785C85.4877 238.238 84.2792 239.134 83.1615 239.134L83.1706 239.143ZM7.07854 164.581C5.56106 164.581 4.33436 165.824 4.33436 167.36V215.231C4.33436 218.357 6.45156 221.026 9.48652 221.711L82.798 238.375C82.9252 238.403 83.0434 238.421 83.1615 238.421C83.9339 238.421 84.7608 237.799 84.7608 236.794V187.15C84.7608 184.225 82.7799 181.729 79.9357 181.08L7.70552 164.654C7.49653 164.609 7.28754 164.581 7.08763 164.581H7.07854Z" fill="#002930"/>
<path d="M51.8669 214.956C51.8669 214.956 51.8215 214.956 51.7942 214.956C51.4943 214.92 51.2581 214.691 51.2217 214.39L47.7143 184.919L41.0446 199.097C40.9265 199.353 40.6539 199.508 40.3631 199.463C40.0814 199.417 39.8543 199.198 39.8179 198.914L37.8915 185.377L35.529 192.342C35.42 192.653 35.1201 192.826 34.793 192.771L27.7054 191.455L27.9416 190.175L34.484 191.391L37.5372 182.387C37.6371 182.104 37.9006 181.912 38.2096 181.949C38.5094 181.976 38.7457 182.205 38.7911 182.506L40.7993 196.583L47.5053 182.314C47.6325 182.049 47.9142 181.903 48.1959 181.949C48.4776 181.994 48.7047 182.223 48.732 182.515L52.1758 211.41L59.1181 191.144C59.218 190.861 59.4816 190.678 59.7905 190.706C60.0904 190.733 60.3266 190.962 60.3721 191.254L62.1803 203.357L66.76 192.278C66.8781 191.995 67.1598 191.839 67.4688 191.885C67.7686 191.931 67.9867 192.186 68.014 192.488L68.6682 202.415L75.3197 203.421L75.1289 204.709L67.9594 203.622C67.6596 203.576 67.4324 203.329 67.4052 203.018L66.8963 195.34L62.4892 206.017C62.3802 206.291 62.1076 206.455 61.8077 206.41C61.517 206.373 61.2898 206.145 61.2444 205.861L59.4816 194.069L52.4757 214.508C52.3848 214.774 52.1395 214.947 51.8669 214.947V214.956Z" fill="#ED005B"/>
<path d="M65.4061 223.997V227.881C65.4061 229.6 68.1594 230.989 71.5487 230.989C74.938 230.989 77.6913 229.6 77.6913 227.881V223.997H65.4061Z" fill="#002930"/>
<path d="M71.5487 231.172C68.0049 231.172 65.2244 229.728 65.2244 227.881V223.814H77.8731V227.881C77.8731 229.728 75.0925 231.172 71.5487 231.172ZM65.5878 224.17V227.872C65.5878 229.49 68.2593 230.797 71.5487 230.797C74.8381 230.797 77.5096 229.481 77.5096 227.872V224.17H65.5878Z" fill="#002930"/>
<path d="M71.5487 227.104C74.9412 227.104 77.6913 225.713 77.6913 223.997C77.6913 222.28 74.9412 220.889 71.5487 220.889C68.1562 220.889 65.4061 222.28 65.4061 223.997C65.4061 225.713 68.1562 227.104 71.5487 227.104Z" fill="#FEFCF3"/>
<path d="M71.5487 227.287C68.0049 227.287 65.2244 225.843 65.2244 223.997C65.2244 222.15 68.0049 220.706 71.5487 220.706C75.0925 220.706 77.8731 222.15 77.8731 223.997C77.8731 225.843 75.0925 227.287 71.5487 227.287ZM71.5487 221.062C68.2593 221.062 65.5878 222.379 65.5878 223.987C65.5878 225.596 68.2593 226.912 71.5487 226.912C74.8381 226.912 77.5096 225.596 77.5096 223.987C77.5096 222.379 74.8381 221.062 71.5487 221.062Z" fill="#002930"/>
<path d="M71.5487 226.008C74.0077 226.008 76.0012 225.107 76.0012 223.997C76.0012 222.886 74.0077 221.986 71.5487 221.986C69.0897 221.986 67.0962 222.886 67.0962 223.997C67.0962 225.107 69.0897 226.008 71.5487 226.008Z" fill="#ED005B"/>
<path d="M71.5487 226.19C68.9499 226.19 66.9145 225.231 66.9145 223.997C66.9145 222.763 68.9499 221.803 71.5487 221.803C74.1475 221.803 76.1829 222.763 76.1829 223.997C76.1829 225.231 74.1475 226.19 71.5487 226.19ZM71.5487 222.168C69.2316 222.168 67.278 223.009 67.278 223.997C67.278 224.984 69.2316 225.825 71.5487 225.825C73.8658 225.825 75.8285 224.984 75.8285 223.997C75.8285 223.009 73.8749 222.168 71.5487 222.168Z" fill="#002930"/>
<path d="M29.45 216.072V219.956C29.45 221.675 32.2033 223.064 35.5926 223.064C38.982 223.064 41.7352 221.675 41.7352 219.956V216.072H29.45Z" fill="#002930"/>
<path d="M35.5926 223.247C32.0488 223.247 29.2683 221.803 29.2683 219.956V215.889H41.917V219.956C41.917 221.803 39.1364 223.247 35.5926 223.247ZM29.6317 216.245V219.956C29.6317 221.574 32.3032 222.881 35.5926 222.881C38.882 222.881 41.5535 221.565 41.5535 219.956V216.245H29.6317Z" fill="#002930"/>
<path d="M35.5926 219.179C38.9851 219.179 41.7352 217.788 41.7352 216.072C41.7352 214.355 38.9851 212.964 35.5926 212.964C32.2002 212.964 29.45 214.355 29.45 216.072C29.45 217.788 32.2002 219.179 35.5926 219.179Z" fill="#FEFCF3"/>
<path d="M35.5926 219.362C32.0488 219.362 29.2683 217.918 29.2683 216.071C29.2683 214.225 32.0488 212.781 35.5926 212.781C39.1364 212.781 41.917 214.225 41.917 216.071C41.917 217.918 39.1364 219.362 35.5926 219.362ZM35.5926 213.137C32.3032 213.137 29.6317 214.454 29.6317 216.062C29.6317 217.671 32.3032 218.987 35.5926 218.987C38.882 218.987 41.5535 217.671 41.5535 216.062C41.5535 214.454 38.882 213.137 35.5926 213.137Z" fill="#002930"/>
<path d="M35.5926 218.083C38.0517 218.083 40.0451 217.182 40.0451 216.072C40.0451 214.961 38.0517 214.061 35.5926 214.061C33.1336 214.061 31.1401 214.961 31.1401 216.072C31.1401 217.182 33.1336 218.083 35.5926 218.083Z" fill="#F2EA6B"/>
<path d="M35.5926 218.265C32.9938 218.265 30.9584 217.306 30.9584 216.071C30.9584 214.837 32.9938 213.878 35.5926 213.878C38.1914 213.878 40.2268 214.837 40.2268 216.071C40.2268 217.306 38.1914 218.265 35.5926 218.265ZM35.5926 214.243C33.2755 214.243 31.3219 215.084 31.3219 216.071C31.3219 217.059 33.2755 217.9 35.5926 217.9C37.9097 217.9 39.8634 217.059 39.8634 216.071C39.8634 215.084 37.9097 214.243 35.5926 214.243Z" fill="#002930"/>
<path d="M25.4246 201.483L25.1883 201.428V199.271L25.4246 199.325V201.483ZM26.3787 199.536L26.1424 199.481L25.9062 199.426L25.6699 199.371L25.4337 199.316V199.079L25.6699 199.133L25.9062 199.188L26.1424 199.243L26.3787 199.298V199.536ZM26.3787 201.693L26.6149 201.748V201.985L26.3787 201.931L26.1424 201.876L25.9062 201.821L25.6699 201.766L25.4337 201.711V201.474L25.6699 201.528L25.9062 201.583L26.1424 201.638L26.3787 201.693ZM26.3787 199.773V199.536L26.6149 199.591V199.828L26.3787 199.773Z" fill="white"/>
<path d="M27.3328 201.894L27.0965 201.839V199.444L27.3328 199.499V201.894ZM28.7594 202.443L28.5231 202.388L28.2869 202.333L28.0506 202.278L27.8144 202.223L27.5781 202.168L27.3419 202.113V201.876L27.5781 201.931L27.8144 201.985L28.0506 202.04L28.2869 202.095L28.5231 202.15L28.7594 202.205V199.81L28.9956 199.865V202.497L28.7594 202.443Z" fill="white"/>
<path d="M29.4772 202.607V199.974L29.7135 200.029V200.267L29.9497 200.322V200.559L30.186 200.614V200.852L30.4223 200.907V201.144L30.6585 201.199V201.437L30.4223 201.382V201.144L30.186 201.09V200.852L29.9497 200.797V200.559L29.7135 200.505V202.662L29.4772 202.607ZM31.858 203.128V200.971L31.6217 200.916V201.154L31.3854 201.099V201.336L31.1492 201.282V201.519L30.9129 201.464V201.702L30.6767 201.647V201.409L30.9129 201.464V201.227L31.1492 201.282V201.044L31.3854 201.099V200.861L31.6217 200.916V200.678L31.858 200.733V200.495L32.0942 200.55V203.183L31.858 203.128Z" fill="white"/>
<path d="M32.5758 203.274V200.642L32.8121 200.696L33.0483 200.751L33.2846 200.806L33.5208 200.861L33.7571 200.916L33.9933 200.971L34.2296 201.026V201.263L34.4658 201.318V202.515L34.2296 202.461V201.263L33.9933 201.208L33.7571 201.153L33.5208 201.099L33.2846 201.044L33.0483 200.989L32.8121 200.934V202.132L33.0483 202.186L33.2846 202.241L33.5208 202.296L33.7571 202.351L33.9933 202.406L34.2296 202.461V202.698L33.9933 202.643L33.7571 202.589L33.5208 202.534L33.2846 202.479L33.0483 202.424L32.8121 202.369V203.329L32.5758 203.274Z" fill="white"/>
<path d="M36.3831 203.869L36.6194 203.923V204.161L36.3831 204.106L36.1469 204.051L35.9106 203.996L35.6744 203.942L35.4381 203.887L35.2019 203.832L34.9656 203.777V201.145L35.2019 201.199V203.594L35.4381 203.649L35.6744 203.704L35.9106 203.759L36.1469 203.814L36.3831 203.869Z" fill="white"/>
<path d="M37.3372 204.316V201.684L37.5742 201.739V204.371L37.3372 204.316Z" fill="white"/>
<path d="M39.718 204.59L39.9542 204.645V204.883L39.718 204.828L39.4817 204.773L39.2455 204.718L39.0092 204.664L38.773 204.609L38.5367 204.554L38.3004 204.499V201.866L38.5367 201.921L38.773 201.976L39.0092 202.031L39.2455 202.086L39.4817 202.141L39.718 202.196L39.9542 202.25V202.488L39.718 202.433L39.4817 202.378L39.2455 202.323L39.0092 202.269L38.773 202.214L38.5367 202.159V203.119L38.773 203.174L39.0092 203.228L39.2455 203.283V203.521L39.0092 203.466L38.773 203.411L38.5367 203.356V204.316L38.773 204.371L39.0092 204.426L39.2455 204.481L39.4817 204.536L39.718 204.59Z" fill="white"/>
<path d="M40.4267 204.993V202.36L40.663 202.415V202.653L40.8992 202.707V202.945L41.1355 203V203.238L41.3717 203.292V203.53L41.608 203.585V203.823L41.8443 203.877V204.115L42.0805 204.17V204.408L42.3168 204.462V204.7L42.553 204.755V204.993L42.3168 204.938V204.7L42.0805 204.645V204.408L41.8443 204.353V204.115L41.608 204.06V203.823L41.3717 203.768V203.53L41.1355 203.475V203.238L40.8992 203.183V202.945L40.663 202.89V205.048L40.4267 204.993ZM42.8074 205.514V205.276L42.5712 205.221V204.984L42.8074 205.038V202.881L43.0437 202.936V205.569L42.8074 205.514Z" fill="white"/>
<path d="M44.7156 205.925L44.4794 205.87L44.2431 205.815L44.0069 205.761L43.7706 205.706V203.073L44.0069 203.128L44.2431 203.183L44.4794 203.238L44.7156 203.293L44.9519 203.347V203.585L45.1882 203.64V205.797L44.9519 205.742V205.98L44.7156 205.925ZM44.7156 205.688L44.9519 205.742V203.585L44.7156 203.53L44.4794 203.475L44.2431 203.421L44.0069 203.366V205.523L44.2431 205.578L44.4794 205.633L44.7156 205.688Z" fill="white"/>
<path d="M46.3876 206.044L46.1513 205.989V203.832L46.3876 203.887V206.044ZM47.3417 204.097L47.1054 204.042L46.8692 203.987L46.6329 203.932L46.3967 203.878V203.64L46.6329 203.695L46.8692 203.75L47.1054 203.804L47.3417 203.859V204.097ZM47.1054 206.199L47.3417 206.254V206.492L47.1054 206.437L46.8692 206.382L46.6329 206.327L46.3967 206.272V206.035L46.6329 206.09L46.8692 206.144L47.1054 206.199ZM47.3417 206.254V204.097L47.5779 204.152V206.309L47.3417 206.254Z" fill="white"/>
<path d="M25.4246 204.188L25.1883 204.133V203.174L25.4246 203.228V204.188ZM26.3787 205.596L26.6149 205.651V205.888L26.3787 205.834L26.1424 205.779L25.9062 205.724L25.6699 205.669L25.4337 205.614L25.1974 205.559V205.322L25.4337 205.377L25.6699 205.431L25.9062 205.486L26.1424 205.541L26.3787 205.596ZM26.6149 203.494L26.3787 203.439L26.1424 203.384L25.9062 203.329L25.6699 203.274L25.4337 203.219V202.982L25.6699 203.037L25.9062 203.091L26.1424 203.146L26.3787 203.201L26.6149 203.256V203.494ZM26.6149 204.691L26.3787 204.636L26.1424 204.581L25.9062 204.526L25.6699 204.472L25.4337 204.417V204.179L25.6699 204.234L25.9062 204.289L26.1424 204.344L26.3787 204.399L26.6149 204.453V204.691ZM26.6149 203.731V203.494L26.8512 203.548V203.786L26.6149 203.731ZM26.6149 205.651V204.691L26.8512 204.746V205.706L26.6149 205.651Z" fill="white"/>
<path d="M27.569 205.852L27.3328 205.797V203.402L27.569 203.457V205.852ZM28.9957 206.401L28.7594 206.346L28.5232 206.291L28.2869 206.236L28.0506 206.181L27.8144 206.126L27.5781 206.071V205.834L27.8144 205.889L28.0506 205.944L28.2869 205.998L28.5232 206.053L28.7594 206.108L28.9957 206.163V203.768L29.2319 203.823V206.455L28.9957 206.401Z" fill="white"/>
<path d="M31.3855 206.684L31.6217 206.739V206.976L31.3855 206.922L31.1492 206.867L30.9129 206.812L30.6767 206.757L30.4404 206.702L30.2042 206.647L29.9679 206.593V203.96L30.2042 204.015L30.4404 204.07L30.6767 204.124L30.9129 204.179L31.1492 204.234L31.3855 204.289L31.6217 204.344V204.582L31.3855 204.527L31.1492 204.472L30.9129 204.417L30.6767 204.362L30.4404 204.307L30.2042 204.252V205.212L30.4404 205.267L30.6767 205.322L30.9129 205.377V205.614L30.6767 205.56L30.4404 205.505L30.2042 205.45V206.41L30.4404 206.465L30.6767 206.519L30.9129 206.574L31.1492 206.629L31.3855 206.684Z" fill="white"/>
<path d="M32.0942 207.077V204.444L32.3305 204.499V204.737L32.5667 204.792V205.029L32.803 205.084V205.322L33.0392 205.377V205.614L33.2755 205.669V205.907L33.5117 205.962V206.199L33.748 206.254V206.492L33.9842 206.547V206.784L34.2205 206.839V207.077L33.9842 207.022V206.784L33.748 206.73V206.492L33.5117 206.437V206.199L33.2755 206.145V205.907L33.0392 205.852V205.614L32.803 205.56V205.322L32.5667 205.267V205.029L32.3305 204.975V207.132L32.0942 207.077ZM34.4749 207.598V207.36L34.2387 207.305V207.068L34.4749 207.123V204.965L34.7112 205.02V207.653L34.4749 207.598Z" fill="white"/>
<path d="M35.9106 207.671L35.6744 207.616V205.459L35.9106 205.514V207.671ZM36.8647 205.724L36.6285 205.669L36.3922 205.614L36.156 205.56L35.9197 205.505V205.267L36.156 205.322L36.3922 205.377L36.6285 205.432L36.8647 205.486V205.724ZM36.6285 207.827L36.8647 207.881V208.119L36.6285 208.064L36.3922 208.009L36.156 207.955L35.9197 207.9V207.662L36.156 207.717L36.3922 207.772L36.6285 207.827ZM36.8647 207.881V205.724L37.101 205.779V207.936L36.8647 207.881Z" fill="white"/>
<path d="M38.046 206.94L37.8098 206.885V205.925L38.046 205.98V206.94ZM39.0001 208.347L39.2364 208.402V208.64L39.0001 208.585L38.7639 208.53L38.5276 208.475L38.2913 208.421L38.0551 208.366L37.8188 208.311V208.073L38.0551 208.128L38.2913 208.183L38.5276 208.238L38.7639 208.293L39.0001 208.347ZM39.2364 206.245L39.0001 206.19L38.7639 206.135L38.5276 206.08L38.2913 206.026L38.0551 205.971V205.733L38.2913 205.788L38.5276 205.843L38.7639 205.898L39.0001 205.953L39.2364 206.007V206.245ZM39.2364 207.442L39.0001 207.388L38.7639 207.333L38.5276 207.278L38.2913 207.223L38.0551 207.168V206.931L38.2913 206.985L38.5276 207.04L38.7639 207.095L39.0001 207.15L39.2364 207.205V207.442ZM39.2364 206.483V206.245L39.4726 206.3V206.538L39.2364 206.483ZM39.2364 208.402V207.442L39.4726 207.497V208.457L39.2364 208.402Z" fill="white"/>
<path d="M39.9542 208.796V208.558L40.1912 208.613V208.851L39.9542 208.796Z" fill="white"/>
<path d="M40.6721 208.951V208.713L40.909 208.768V209.006L40.6721 208.951Z" fill="white"/>
<path d="M41.3808 209.107V208.868L41.6178 208.923V209.162L41.3808 209.107Z" fill="white"/>
<path d="M34.4113 204.554L32.3941 204.115V203.905L34.4113 204.344V204.554Z" fill="white"/>
<path d="M114.302 245.917C116.721 245.917 118.681 243.944 118.681 241.511C118.681 239.077 116.721 237.105 114.302 237.105C111.883 237.105 109.922 239.077 109.922 241.511C109.922 243.944 111.883 245.917 114.302 245.917Z" fill="white"/>
<path d="M114.302 246.282C111.685 246.282 109.558 244.143 109.558 241.511C109.558 238.878 111.685 236.739 114.302 236.739C116.919 236.739 119.045 238.878 119.045 241.511C119.045 244.143 116.919 246.282 114.302 246.282ZM114.302 237.47C112.084 237.47 110.285 239.28 110.285 241.511C110.285 243.741 112.084 245.551 114.302 245.551C116.519 245.551 118.318 243.741 118.318 241.511C118.318 239.28 116.519 237.47 114.302 237.47Z" fill="#002930"/>
<path d="M115.447 302.672C117.865 302.672 119.826 300.7 119.826 298.266C119.826 295.833 117.865 293.86 115.447 293.86C113.028 293.86 111.067 295.833 111.067 298.266C111.067 300.7 113.028 302.672 115.447 302.672Z" fill="white"/>
<path d="M115.447 303.038C112.83 303.038 110.703 300.899 110.703 298.266C110.703 295.634 112.83 293.495 115.447 293.495C118.064 293.495 120.19 295.634 120.19 298.266C120.19 300.899 118.064 303.038 115.447 303.038ZM115.447 294.226C113.229 294.226 111.43 296.036 111.43 298.266C111.43 300.497 113.229 302.306 115.447 302.306C117.664 302.306 119.463 300.497 119.463 298.266C119.463 296.036 117.664 294.226 115.447 294.226Z" fill="#002930"/>
<path d="M110.358 246.922V296.392C110.358 297.142 111.149 297.617 111.812 297.27L113.484 296.392C115.01 295.588 116.846 296.703 116.846 298.44C116.846 299.299 116.364 300.094 115.61 300.487L112.975 301.858C109.758 303.568 105.896 301.228 105.896 297.571V246.41C105.896 244.609 106.887 242.964 108.459 242.123L112.857 239.792C114.383 238.979 116.219 240.094 116.219 241.84C116.219 242.699 115.746 243.485 114.992 243.887L110.885 246.054C110.558 246.227 110.358 246.565 110.358 246.931V246.922Z" fill="white"/>
<path d="M110.712 302.8C109.786 302.8 108.868 302.544 108.041 302.041C106.469 301.091 105.533 299.418 105.533 297.571V246.41C105.533 244.472 106.587 242.708 108.286 241.803L112.684 239.472C113.52 239.033 114.492 239.061 115.292 239.545C116.092 240.03 116.573 240.889 116.573 241.83C116.573 242.827 116.028 243.732 115.147 244.198L111.039 246.364C110.84 246.474 110.703 246.684 110.703 246.922V296.392C110.703 296.612 110.812 296.822 111.003 296.931C111.194 297.05 111.421 297.05 111.621 296.95L113.293 296.072C114.129 295.633 115.101 295.67 115.901 296.155C116.701 296.639 117.182 297.498 117.182 298.44C117.182 299.445 116.637 300.35 115.746 300.816L113.111 302.187C112.348 302.599 111.512 302.8 110.685 302.8H110.712ZM113.92 239.893C113.611 239.893 113.302 239.966 113.02 240.121L108.622 242.452C107.159 243.229 106.251 244.755 106.251 246.419V297.58C106.251 299.171 107.06 300.606 108.413 301.429C109.767 302.242 111.403 302.297 112.802 301.548L115.437 300.177C116.083 299.838 116.482 299.18 116.482 298.449C116.482 297.763 116.137 297.142 115.547 296.785C114.965 296.429 114.247 296.41 113.647 296.73L111.975 297.608C111.557 297.836 111.058 297.818 110.649 297.571C110.24 297.325 109.995 296.886 109.995 296.41V246.94C109.995 246.437 110.267 245.971 110.712 245.743L114.82 243.576C115.456 243.238 115.855 242.58 115.855 241.858C115.855 241.172 115.51 240.551 114.92 240.194C114.611 240.002 114.265 239.911 113.92 239.911V239.893Z" fill="#002930"/>
<path d="M70.8036 252.718C73.2225 252.718 75.1834 250.745 75.1834 248.312C75.1834 245.878 73.2225 243.906 70.8036 243.906C68.3847 243.906 66.4238 245.878 66.4238 248.312C66.4238 250.745 68.3847 252.718 70.8036 252.718Z" fill="white"/>
<path d="M70.8127 253.083C70.4855 253.083 70.1584 253.047 69.8313 252.983C68.5955 252.717 67.5324 251.986 66.8418 250.917C66.1512 249.847 65.9149 248.577 66.1785 247.324C66.7237 244.756 69.2316 243.101 71.8031 243.65C74.3565 244.198 76.0012 246.73 75.456 249.308C74.9835 251.547 73.0117 253.092 70.8218 253.092L70.8127 253.083ZM70.8127 244.271C68.959 244.271 67.287 245.578 66.8781 247.471C66.651 248.531 66.8509 249.61 67.4415 250.515C68.0321 251.419 68.9226 252.041 69.9767 252.27C72.1484 252.736 74.2838 251.337 74.7472 249.153C75.2106 246.968 73.8204 244.82 71.6486 244.354C71.367 244.29 71.0853 244.262 70.8127 244.262V244.271Z" fill="#002930"/>
<path d="M24.4251 241.639C26.844 241.639 28.8049 239.666 28.8049 237.233C28.8049 234.799 26.844 232.827 24.4251 232.827C22.0062 232.827 20.0453 234.799 20.0453 237.233C20.0453 239.666 22.0062 241.639 24.4251 241.639Z" fill="white"/>
<path d="M24.4342 242.004C24.107 242.004 23.7708 241.968 23.4437 241.895C22.2079 241.629 21.1448 240.898 20.4542 239.829C19.7636 238.759 19.5273 237.489 19.7908 236.236C20.0544 234.993 20.7813 233.924 21.8444 233.229C22.9076 232.534 24.1706 232.297 25.4155 232.562C27.9689 233.11 29.6136 235.642 29.0684 238.22C28.8049 239.463 28.0779 240.533 27.0148 241.227C26.2333 241.739 25.3519 241.995 24.4432 241.995L24.4342 242.004ZM24.416 233.192C23.6436 233.192 22.8985 233.412 22.2352 233.851C21.3356 234.436 20.7177 235.341 20.4905 236.401C20.2634 237.461 20.4633 238.54 21.0539 239.445C21.6445 240.35 22.535 240.971 23.5891 241.2C24.6341 241.419 25.7154 241.227 26.615 240.633C27.5145 240.048 28.1324 239.143 28.3596 238.083C28.823 235.898 27.4328 233.75 25.261 233.284C24.9794 233.22 24.6977 233.192 24.416 233.192Z" fill="#002930"/>
<path d="M64.7246 251.072L25.1883 242.626C24.4614 242.471 24.1615 241.593 24.634 241.017L25.8426 239.555C26.9421 238.22 26.2424 236.182 24.5523 235.825C23.7163 235.642 22.844 235.953 22.2988 236.62L20.4178 238.924C18.0916 241.73 19.5637 246.026 23.1166 246.785L64.2975 255.579C66.0421 255.953 67.8504 255.323 69.0044 253.942L72.1848 250.094C73.2933 248.759 72.5846 246.721 70.8944 246.355C70.0585 246.173 69.1952 246.483 68.65 247.142L65.6969 250.734C65.4606 251.017 65.088 251.145 64.7337 251.072H64.7246Z" fill="white"/>
<path d="M65.297 256.045C64.9336 256.045 64.5792 256.008 64.2157 255.926L23.0348 247.132C21.2356 246.748 19.809 245.478 19.2093 243.732C18.6096 241.986 18.9549 240.103 20.127 238.686L22.008 236.383C22.6441 235.606 23.6436 235.258 24.6159 235.469C25.5336 235.661 26.2697 236.309 26.5695 237.205C26.8785 238.101 26.7058 239.061 26.1061 239.792L24.8976 241.255C24.7522 241.428 24.7158 241.657 24.7885 241.867C24.8612 242.077 25.0339 242.233 25.2519 242.278L64.7882 250.725C65.0154 250.77 65.2516 250.688 65.397 250.514L68.3502 246.922C68.9862 246.154 69.9767 245.807 70.949 246.017C71.8667 246.209 72.6028 246.867 72.9026 247.754C73.2025 248.641 73.0389 249.609 72.4392 250.341L69.2588 254.189C68.2593 255.386 66.8054 256.063 65.288 256.063L65.297 256.045ZM24.0616 236.136C23.4891 236.136 22.9439 236.392 22.5714 236.849L20.6904 239.152C19.6727 240.377 19.3819 241.995 19.8999 243.503C20.4178 245.002 21.6445 246.099 23.1893 246.428L64.3702 255.222C65.9876 255.569 67.6596 254.993 68.7227 253.714L71.9031 249.875C72.3392 249.344 72.4664 248.641 72.2393 247.992C72.0121 247.343 71.4851 246.867 70.8127 246.73C70.1039 246.575 69.3861 246.831 68.9226 247.388L65.9695 250.981C65.6423 251.364 65.1426 251.538 64.6519 251.438L25.1156 242.991C24.6522 242.891 24.2797 242.562 24.1161 242.105C23.9616 241.648 24.0525 241.163 24.3614 240.789L25.5609 239.326C25.9971 238.796 26.1243 238.092 25.8971 237.443C25.6699 236.794 25.1429 236.319 24.4705 236.182C24.3342 236.154 24.1979 236.136 24.0616 236.136Z" fill="#002930"/>
<path d="M132.739 176.556L17.6827 148.219L17.8554 147.515L132.639 175.788L215.655 130.541L216 131.18L132.739 176.556Z" fill="#002930"/>
<path d="M133.047 176.172H132.33V370.607H133.047V176.172Z" fill="#002930"/>
<path d="M135.583 169.243L135.446 169.206L33.6026 144.179L100.472 108.319L100.608 108.356L200.762 133.292L135.583 169.234V169.243ZM35.6199 143.932L135.483 168.466L198.79 133.557L100.572 109.096L35.6108 143.923L35.6199 143.932Z" fill="#002930"/>
<path d="M42.8529 146.08L101.008 115.284L192.729 137.323L135.537 168.859L42.8529 146.08Z" fill="#002930"/>
<g opacity="0.25">
<path d="M34.6113 144.06L42.8529 146.08L101.008 115.284L192.011 137.149L199.78 133.429L100.526 108.712L34.6113 144.06Z" fill="#002930"/>
</g>
<path d="M36.9102 341.832L39.7906 340.451C39.9996 340.287 40.1359 340.04 40.1359 339.747V320.159C40.1359 319.756 39.8633 319.4 39.4726 319.299L25.9607 315.789C25.679 315.716 25.3791 315.634 25.1701 315.789L22.5259 317.188" fill="#E6E6E6"/>
<path d="M36.3104 341.895L22.7985 338.385C22.4078 338.285 22.1352 337.928 22.1352 337.526V317.937C22.1352 317.352 22.6804 316.932 23.2438 317.078L36.7557 320.588C37.1464 320.689 37.419 321.045 37.419 321.447V341.036C37.419 341.621 36.8738 342.042 36.3104 341.895Z" fill="white"/>
<path d="M34.5204 324.482C34.5204 324.482 25.0975 322.032 24.8612 321.969L25.0429 321.265C25.2883 321.329 34.7021 323.778 34.7021 323.778L34.5204 324.482Z" fill="#002930"/>
<path d="M34.5204 327.663C34.5204 327.663 25.0975 325.213 24.8612 325.149L25.0429 324.446C25.2883 324.51 34.7021 326.959 34.7021 326.959L34.5204 327.663Z" fill="#002930"/>
<path d="M34.5204 330.844C34.5204 330.844 25.0975 328.395 24.8612 328.331L25.0429 327.627C25.2883 327.691 34.7021 330.14 34.7021 330.14L34.5204 330.844Z" fill="#002930"/>
<path d="M34.5204 334.016C34.5204 334.016 25.0975 331.566 24.8612 331.502L25.0429 330.799C25.2883 330.863 34.7021 333.312 34.7021 333.312L34.5204 334.016Z" fill="#002930"/>
<path d="M34.5204 337.197C34.5204 337.197 25.0975 334.747 24.8612 334.683L25.0429 333.979C25.2883 334.043 34.7021 336.493 34.7021 336.493L34.5204 337.197Z" fill="#002930"/>
<path d="M192.983 278.293L151.975 302.087L149.867 301.365V288.75L192.983 265.679L195.091 266.401L192.983 278.293Z" fill="#E6E6E6"/>
<path d="M195.091 279.015L151.975 302.087V289.473L195.091 266.401V279.015Z" fill="white"/>
<path d="M159.735 288.366L160.662 287.864V291.922C160.662 292.754 161.053 293.065 161.671 292.736C162.288 292.397 162.679 291.675 162.679 290.844V286.785L163.606 286.282V290.341C163.606 291.794 162.788 293.33 161.671 293.933C160.544 294.536 159.735 293.887 159.735 292.425V288.366Z" fill="#002930"/>
<path d="M164.578 285.761L166.596 284.673C167.45 284.216 168.068 284.71 168.068 285.697C168.068 286.145 167.922 286.538 167.777 286.812C167.695 286.977 167.595 287.132 167.486 287.26C167.631 287.279 167.759 287.324 167.877 287.407C168.068 287.553 168.268 287.864 168.268 288.458C168.268 289.445 167.604 290.688 166.677 291.182L164.587 292.306V285.752L164.578 285.761ZM166.514 287.37C166.859 287.178 167.132 286.675 167.132 286.255C167.132 285.834 166.859 285.624 166.514 285.807L165.505 286.346V287.909L166.514 287.37ZM166.596 290.14C167.032 289.911 167.332 289.335 167.332 288.805C167.332 288.275 167.032 288.028 166.596 288.266L165.514 288.851V290.725L166.596 290.14Z" fill="#002930"/>
<path d="M170.203 282.736L171.057 282.279L172.875 287.854L171.902 288.376L171.557 287.215L169.694 288.211L169.349 289.747L168.377 290.268L170.194 282.736H170.203ZM171.248 286.227L170.63 284.171L170.012 286.895L171.257 286.227H171.248Z" fill="#002930"/>
<path d="M173.338 281.045L174.156 280.606L176.327 283.705V279.436L177.254 278.933V285.487L176.436 285.926L174.265 282.827V287.096L173.338 287.599V281.045Z" fill="#002930"/>
<path d="M178.263 278.394L179.19 277.891V280.807L180.816 277.023L181.898 276.438L180.08 280.643L182.016 282.928L180.934 283.513L179.19 281.483V284.445L178.263 284.948V278.394Z" fill="#002930"/>
<path d="M182.343 276.209L183.27 275.706V279.765C183.27 280.597 183.66 280.908 184.278 280.578C184.896 280.249 185.287 279.518 185.287 278.686V274.628L186.214 274.125V278.184C186.214 279.637 185.396 281.173 184.278 281.776C183.152 282.379 182.343 281.73 182.343 280.268V276.209Z" fill="#002930"/>
<path d="M124.66 190.386C124.66 188.165 123.043 186.364 121.053 186.364C120.453 186.364 119.881 186.528 119.381 186.821L119.345 186.839C119.336 186.839 119.327 186.848 119.317 186.857L117.037 188.256L117.564 189.38C117.491 189.7 117.446 190.029 117.446 190.377C117.446 192.086 118.409 193.548 119.763 194.124L120.344 195.386L122.752 193.914C122.752 193.914 122.77 193.914 122.77 193.905H122.789V193.896C123.897 193.21 124.651 191.894 124.651 190.377L124.66 190.386Z" fill="white"/>
<path d="M120.19 195.925L119.49 194.417C118.018 193.722 117.082 192.159 117.082 190.395C117.082 190.084 117.119 189.764 117.182 189.444L116.573 188.137L119.399 186.4H119.408C119.926 186.153 120.481 186.016 121.044 186.016C123.234 186.016 125.015 187.982 125.015 190.395C125.015 191.976 124.233 193.448 122.979 194.225L120.19 195.934V195.925ZM117.5 188.411L117.936 189.362L117.909 189.481C117.836 189.792 117.8 190.093 117.8 190.395C117.8 191.903 118.645 193.274 119.899 193.814L120.026 193.868L120.499 194.892L122.571 193.631C123.643 192.963 124.297 191.739 124.297 190.404C124.297 188.393 122.843 186.748 121.053 186.748C120.526 186.748 120.026 186.885 119.563 187.159L119.445 187.223L117.5 188.42V188.411Z" fill="#002930"/>
<path d="M118.6 195.907C120.592 195.907 122.207 194.106 122.207 191.885C122.207 189.663 120.592 187.863 118.6 187.863C116.607 187.863 114.992 189.663 114.992 191.885C114.992 194.106 116.607 195.907 118.6 195.907Z" fill="#ED005B"/>
<path d="M118.6 196.263C116.41 196.263 114.629 194.298 114.629 191.885C114.629 189.472 116.41 187.506 118.6 187.506C120.79 187.506 122.571 189.472 122.571 191.885C122.571 194.298 120.79 196.263 118.6 196.263ZM118.6 188.228C116.81 188.228 115.356 189.865 115.356 191.885C115.356 193.905 116.81 195.541 118.6 195.541C120.39 195.541 121.844 193.905 121.844 191.885C121.844 189.865 120.39 188.228 118.6 188.228Z" fill="#002930"/>
<path d="M124.66 202.58C124.66 200.358 123.043 198.558 121.053 198.558C120.453 198.558 119.881 198.722 119.381 199.015L119.345 199.033C119.336 199.033 119.327 199.042 119.317 199.051L117.037 200.45L117.564 201.574C117.491 201.894 117.446 202.223 117.446 202.57C117.446 204.28 118.409 205.742 119.763 206.318L120.344 207.58L122.752 206.108C122.752 206.108 122.77 206.108 122.77 206.099H122.789V206.09C123.897 205.404 124.651 204.088 124.651 202.57L124.66 202.58Z" fill="white"/>
<path d="M120.19 208.11L119.49 206.602C118.018 205.907 117.082 204.344 117.082 202.58C117.082 202.269 117.119 201.949 117.182 201.629L116.573 200.322L119.372 198.603H119.381C119.899 198.347 120.472 198.201 121.053 198.201C123.243 198.201 125.024 200.166 125.024 202.58C125.024 204.161 124.242 205.633 122.989 206.41L120.199 208.119L120.19 208.11ZM117.5 200.596L117.936 201.547L117.909 201.666C117.836 201.976 117.8 202.278 117.8 202.58C117.8 204.088 118.645 205.459 119.899 205.998L120.026 206.053L120.499 207.077L122.571 205.816C123.643 205.148 124.297 203.923 124.297 202.589C124.297 200.578 122.843 198.932 121.053 198.932C120.526 198.932 120.026 199.07 119.563 199.344L119.463 199.399L117.5 200.605V200.596Z" fill="#002930"/>
<path d="M118.6 208.092C120.592 208.092 122.207 206.291 122.207 204.07C122.207 201.848 120.592 200.048 118.6 200.048C116.607 200.048 114.992 201.848 114.992 204.07C114.992 206.291 116.607 208.092 118.6 208.092Z" fill="#F2EA6B"/>
<path d="M118.6 208.448C116.41 208.448 114.629 206.483 114.629 204.07C114.629 201.656 116.41 199.691 118.6 199.691C120.79 199.691 122.571 201.656 122.571 204.07C122.571 206.483 120.79 208.448 118.6 208.448ZM118.6 200.413C116.81 200.413 115.356 202.049 115.356 204.07C115.356 206.09 116.81 207.726 118.6 207.726C120.39 207.726 121.844 206.09 121.844 204.07C121.844 202.049 120.39 200.413 118.6 200.413Z" fill="#002930"/>
<path d="M124.66 214.764C124.66 212.543 123.043 210.742 121.053 210.742C120.453 210.742 119.881 210.907 119.381 211.199L119.345 211.218C119.336 211.218 119.327 211.227 119.317 211.236L117.037 212.635L117.564 213.759C117.491 214.079 117.446 214.408 117.446 214.755C117.446 216.465 118.409 217.927 119.763 218.503L120.344 219.764L122.752 218.293C122.752 218.293 122.77 218.293 122.77 218.284H122.789V218.274C123.897 217.589 124.651 216.273 124.651 214.755L124.66 214.764Z" fill="white"/>
<path d="M120.19 220.295L119.49 218.786C118.018 218.092 117.082 216.529 117.082 214.764C117.082 214.454 117.119 214.134 117.182 213.814L116.573 212.507L119.372 210.788H119.381C119.899 210.532 120.472 210.386 121.053 210.386C123.243 210.386 125.024 212.351 125.024 214.764C125.024 216.346 124.242 217.817 122.989 218.594L120.199 220.304L120.19 220.295ZM117.5 212.781L117.936 213.732L117.909 213.85C117.836 214.161 117.8 214.463 117.8 214.764C117.8 216.273 118.645 217.644 119.899 218.183L120.026 218.238L120.499 219.262L122.571 218C123.643 217.333 124.297 216.108 124.297 214.774C124.297 212.763 122.843 211.117 121.053 211.117C120.526 211.117 120.026 211.254 119.563 211.529L119.463 211.583L117.5 212.79V212.781Z" fill="#002930"/>
<path d="M118.6 220.276C120.592 220.276 122.207 218.476 122.207 216.254C122.207 214.033 120.592 212.232 118.6 212.232C116.607 212.232 114.992 214.033 114.992 216.254C114.992 218.476 116.607 220.276 118.6 220.276Z" fill="#00EEC9"/>
<path d="M118.6 220.642C116.41 220.642 114.629 218.677 114.629 216.263C114.629 213.85 116.41 211.885 118.6 211.885C120.79 211.885 122.571 213.85 122.571 216.263C122.571 218.677 120.79 220.642 118.6 220.642ZM118.6 212.607C116.81 212.607 115.356 214.243 115.356 216.263C115.356 218.284 116.81 219.92 118.6 219.92C120.39 219.92 121.844 218.284 121.844 216.263C121.844 214.243 120.39 212.607 118.6 212.607Z" fill="#002930"/>
<path d="M29.1865 89.8547C29.1865 89.8547 33.1937 96.5367 41.7534 98.1363C50.3131 99.736 45.2881 92.2222 45.2881 92.2222L39.7725 65.9148C39.7725 65.9148 25.0611 78.4286 29.1774 89.8638L29.1865 89.8547Z" fill="#002930"/>
<path d="M164.978 24.8266C165.987 24.3513 193.301 24.8266 196.727 35.5854C200.153 46.3442 182.761 61.2438 182.761 61.2438L164.978 24.8266Z" fill="#002930"/>
<path d="M75.1379 135.842C75.1379 135.998 72.6482 136.784 73.8931 140.486C75.1379 144.188 90.7943 155.203 118.109 153.32C145.424 151.437 164.042 137.771 162.561 133.164C161.08 128.566 156.373 130.221 156.373 130.221L75.1379 135.833V135.842Z" fill="white"/>
<path d="M112.639 147.872C153.128 147.872 185.95 114.853 185.95 74.1232C185.95 33.3931 153.128 0.374756 112.639 0.374756C72.1499 0.374756 39.3272 33.3931 39.3272 74.1232C39.3272 114.853 72.1499 147.872 112.639 147.872Z" fill="#D8FAFF"/>
<path d="M112.639 148.246C72.0121 148.246 38.9547 114.992 38.9547 74.1232C38.9547 33.2544 72.003 0 112.639 0C153.274 0 186.323 33.2544 186.323 74.1232C186.323 114.992 153.265 148.246 112.639 148.246ZM112.639 0.758691C72.421 0.758691 39.7089 33.6658 39.7089 74.1232C39.7089 114.581 72.421 147.488 112.639 147.488C152.856 147.488 185.569 114.581 185.569 74.1232C185.569 33.6658 152.847 0.758691 112.639 0.758691Z" fill="#002930"/>
<path d="M112.412 10.2013C107.05 10.2013 102.861 8.44622 102.861 6.20671C102.861 3.9672 107.06 2.21216 112.412 2.21216C117.764 2.21216 121.962 3.9672 121.962 6.20671C121.962 8.44622 117.764 10.2013 112.412 10.2013ZM112.412 3.02569C107.259 3.02569 103.67 4.69847 103.67 6.20671C103.67 7.71495 107.259 9.38773 112.412 9.38773C117.564 9.38773 121.153 7.71495 121.153 6.20671C121.153 4.69847 117.564 3.02569 112.412 3.02569Z" fill="#002930"/>
<path d="M157.445 132.981L156.764 132.542C162.825 122.99 171.039 106.966 172.429 78.1999C173.883 48.2453 159.953 30.375 148.004 20.6582C135.047 10.1188 121.589 6.63615 121.462 6.59959L121.662 5.81348C121.798 5.85004 135.428 9.37841 148.522 20.0275C160.617 29.8631 174.719 47.9437 173.247 78.2456C171.839 107.204 163.561 123.356 157.454 132.981H157.445Z" fill="#002930"/>
<path d="M138.708 143.374L137.972 143.036C145.205 126.921 149.158 111.4 150.785 92.6976C155.601 37.3222 117.155 9.90879 116.764 9.63457L117.228 8.96729C117.618 9.24151 156.455 36.9292 151.593 92.7707C149.958 111.573 145.987 127.177 138.718 143.374H138.708Z" fill="#002930"/>
<path d="M118.527 147.689C107.814 99.1234 111.966 10.6581 112.003 9.77148L112.811 9.80805C112.766 10.6947 108.632 99.0594 119.317 147.515L118.527 147.689Z" fill="#002930"/>
<path d="M99.8719 147.076C85.3787 130.943 78.4273 112.067 78.6363 89.361C79.1452 32.8066 105.56 9.22315 105.833 8.99463L106.36 9.60707C106.096 9.83559 79.9539 33.2088 79.445 89.361C79.2451 111.848 86.1238 130.55 100.472 146.528L99.8719 147.076Z" fill="#002930"/>
<path d="M77.0734 139.078C62.0349 123.859 54.4112 104.169 54.4112 80.5583C54.4112 52.569 67.6505 33.7388 78.7544 22.8703C90.7852 11.1061 102.98 5.87749 103.098 5.83179L103.407 6.58134C103.289 6.63618 91.2032 11.8099 79.2906 23.4736C68.3047 34.2233 55.2108 52.8615 55.2108 80.5492C55.2108 103.941 62.7528 123.438 77.6368 138.493L77.0643 139.069L77.0734 139.078Z" fill="#002930"/>
<path d="M104.642 4.70752C104.642 4.70752 96.2282 4.30532 90.9851 4.04938L91.0215 3.23584C96.2645 3.49178 104.679 3.89398 104.679 3.89398L104.642 4.70752Z" fill="#002930"/>
<path d="M112.421 0.384033H111.612V2.62354H112.421V0.384033Z" fill="#002930"/>
<path d="M118.064 3.79336C118.009 3.79336 117.973 3.79336 117.927 3.77508L118.045 3.38202V2.97982C118.145 2.97982 118.372 2.91584 118.709 2.84271C120.353 2.47708 124.706 1.499 129.331 1.91948L129.258 2.73302C124.76 2.33082 120.49 3.28147 118.881 3.63796C118.391 3.74765 118.191 3.79336 118.054 3.79336H118.064Z" fill="#002930"/>
<path d="M112.275 28.5561C96.2554 28.5561 83.2251 21.8193 83.2251 13.5468C83.2251 9.59794 86.151 5.86847 91.4486 3.06223L91.7848 3.70209C86.7326 6.38036 83.9429 9.87216 83.9429 13.5468C83.9429 21.4262 96.6462 27.834 112.266 27.834C127.886 27.834 140.589 21.4262 140.589 13.5468C140.589 9.57966 137.664 6.06957 132.139 3.3913L132.448 2.73315C138.245 5.5394 141.307 9.27801 141.307 13.5468C141.307 21.8193 128.277 28.5561 112.257 28.5561H112.275Z" fill="#002930"/>
<path d="M112.275 57.9621C81.2896 57.9621 56.0831 46.0881 56.0831 31.4902C56.0831 28.9765 56.8282 26.481 58.2912 24.0952L58.9091 24.4791C57.5188 26.7461 56.8101 29.1136 56.8101 31.4902C56.8101 45.6859 81.6895 57.2308 112.275 57.2308C142.861 57.2308 167.741 45.6859 167.741 31.4902C167.741 27.258 165.451 23.044 161.134 19.3237L161.607 18.7661C166.096 22.6327 168.477 27.0294 168.477 31.4902C168.477 46.0881 143.27 57.9621 112.284 57.9621H112.275Z" fill="#002930"/>
<path d="M111.912 94.3701C77.1097 94.3701 47.2236 83.8764 39.2455 68.8397L39.7997 68.5381C47.6779 83.3737 77.3278 93.7303 111.912 93.7303C148.459 93.7303 179.962 81.7283 185.196 65.8049L185.796 66.006C180.48 82.1762 148.722 94.3701 111.912 94.3701Z" fill="#002930"/>
<path d="M111.712 136.519C92.6844 136.519 74.7745 133.109 61.2716 126.921L61.5261 126.354C74.9471 132.506 92.7752 135.897 111.712 135.897C132.602 135.897 152.357 131.692 165.905 124.352L166.196 124.901C152.557 132.287 132.693 136.519 111.712 136.519Z" fill="#002930"/>
<path d="M187.013 93.8949C172.593 103.74 152.302 112.944 129.894 119.782C107.859 126.519 86.1965 130.221 68.8954 130.221C49.359 130.221 37.6189 125.568 34.9656 116.756L26.5695 88.968C26.5695 88.968 29.559 92.149 31.5581 93.703C32.6849 94.5713 37.0374 96.5183 41.7625 98.1363C45.4335 99.3977 49.3317 100.467 52.1122 100.687C58.4638 101.198 101.326 99.0412 125.724 89.6261C150.112 80.2111 186.795 59.6441 190.403 54.2053C190.739 53.6934 191.102 53.1267 191.466 52.5508C194.964 47.0572 199.28 39.3423 199.28 39.3423L206.832 63.2639V63.2822C206.95 63.5747 207.05 63.8672 207.131 64.1597C209.748 72.8344 202.797 83.1179 187.023 93.8949H187.013Z" fill="#F2EA6B"/>
<path d="M68.8954 130.586C49.1682 130.586 37.3191 125.842 34.6113 116.857L25.7699 87.5876L26.824 88.712C26.824 88.712 29.8226 91.893 31.7671 93.4104C32.7939 94.2056 36.9465 96.0978 41.8624 97.7797C46.0605 99.2148 49.7043 100.12 52.1304 100.312C58.3821 100.814 101.408 98.6024 125.578 89.2695C149.967 79.8545 186.568 59.2875 190.085 53.9858C190.421 53.4739 190.784 52.9163 191.139 52.3405C194.592 46.9108 198.899 39.2233 198.944 39.1502L199.353 38.4189L207.168 63.1998C207.277 63.4832 207.377 63.7574 207.458 64.0499C210.121 72.8891 203.124 83.3097 187.204 94.1873C172.738 104.059 152.42 113.273 129.985 120.12C107.914 126.866 86.2146 130.577 68.8772 130.577L68.8954 130.586ZM27.3419 90.3025L35.3018 116.656C37.9006 125.303 49.5134 129.864 68.8863 129.864C86.151 129.864 107.777 126.162 129.776 119.434C152.139 112.606 172.393 103.429 186.795 93.5932C202.424 82.9166 209.33 72.7703 206.768 64.2602C206.686 63.9676 206.586 63.6934 206.477 63.4101L206.45 63.3186L199.171 40.238C198.008 42.2855 194.592 48.2728 191.757 52.7335C191.393 53.3185 191.03 53.8761 190.694 54.3972C187.077 59.8543 151.03 80.2384 125.842 89.9551C101.571 99.3245 58.373 101.555 52.0759 101.043C48.8956 100.787 44.643 99.4982 41.6353 98.4744C37.101 96.9296 32.5758 94.9552 31.331 93.9862C30.0497 92.9899 28.396 91.3719 27.3419 90.2933V90.3025Z" fill="#002930"/>
<path d="M198.726 36.3623C196.1 27.6785 184.66 23.035 165.605 22.907C167.014 23.8942 168.204 25.2013 169.276 26.6273C183.597 27.2306 193.274 30.8412 195.264 37.4135C199.571 51.6915 166.078 74.562 120.444 88.5018C74.8108 102.442 34.3296 102.177 30.0134 87.8985C28.4414 82.7065 31.8852 76.3719 39.1001 69.7447C39.1728 67.9074 39.409 66.0884 39.927 64.2785C39.927 64.2602 39.927 64.2419 39.927 64.2237C28.9502 73.1634 24.3342 81.637 26.5513 88.9588C29.2138 97.7706 40.9447 102.423 60.4902 102.423C77.7913 102.423 99.454 98.7121 121.489 91.9844C143.897 85.1379 164.179 75.9422 178.608 66.0884C194.383 55.3113 201.343 45.0279 198.717 36.3532L198.726 36.3623Z" fill="#D8FAFF"/>
<path d="M60.4993 102.816C40.772 102.816 28.9139 98.0631 26.197 89.0868C23.9525 81.6553 28.6231 72.9623 39.6998 63.9403L40.454 63.3279L40.2904 64.3974C39.8179 66.0518 39.5544 67.8069 39.4726 69.7813V69.9367L39.3545 70.0464C32.0124 76.8015 28.9048 82.9442 30.3768 87.8162C32.4123 94.5439 42.8347 98.3191 59.736 98.4288C59.9904 98.4288 60.2539 98.4288 60.5083 98.4288C77.4278 98.4288 98.6271 94.7907 120.326 88.1636C165.687 74.306 199.135 51.6002 194.892 37.5415C193.029 31.3806 183.924 27.642 169.249 27.0204H169.067L168.958 26.8741C167.731 25.2379 166.587 24.0862 165.369 23.2361L164.369 22.5322H165.587C184.814 22.6693 196.391 27.4226 199.062 36.2709C201.734 45.1284 194.728 55.5581 178.808 66.4358C164.351 76.3079 144.033 85.5219 121.589 92.3775C99.5176 99.1235 77.8185 102.835 60.4811 102.835L60.4993 102.816ZM39.2909 65.2566C29.1047 73.8033 24.834 81.9478 26.9239 88.8583C29.5318 97.4873 41.1355 102.058 60.4993 102.058C77.764 102.058 99.3903 98.3556 121.389 91.6371C143.761 84.7998 164.015 75.6223 178.408 65.7959C194.037 55.1285 200.934 44.9913 198.372 36.4812C195.855 28.1539 184.933 23.6108 166.741 23.3092C167.659 24.0862 168.549 25.046 169.476 26.2708C184.396 26.929 193.683 30.8504 195.637 37.3221C199.998 51.7738 166.323 74.9093 120.562 88.8857C98.4544 95.6408 76.8553 99.2697 59.7451 99.1875C42.4894 99.0686 31.8035 95.1106 29.6681 88.0356C28.1143 82.8893 31.2492 76.5181 38.7457 69.5985C38.8184 68.0446 39.0001 66.6186 39.3091 65.2749L39.2909 65.2566Z" fill="#002930"/>
<g style="mix-blend-mode:multiply">
<path d="M54.9927 123.054L48.4139 122.469L49.7588 107.067L56.3375 107.652C60.8445 108.054 62.6982 110.915 62.3984 114.389L62.1076 117.762C61.8077 121.226 59.4997 123.447 55.0018 123.054H54.9927ZM56.9736 113.392C57.0645 112.378 56.7828 111.628 55.6288 111.528L54.8928 111.464L54.2385 119.005L54.9745 119.069C56.1195 119.169 56.5284 118.53 56.6192 117.487L56.9736 113.392Z" fill="#002930"/>
<path d="M72.521 123.146C71.8031 123.182 71.267 121.994 71.2125 120.815L71.1216 118.84C71.0853 117.963 70.849 117.46 69.8404 117.506L69.2679 117.533L69.5314 123.283L64.0703 123.539L63.3616 108.091L71.0853 107.734C73.9658 107.597 75.9921 108.923 76.1102 111.546L76.1556 112.478C76.2283 114.032 75.5377 115.129 73.8931 115.605C75.6104 115.778 76.3283 116.912 76.401 118.374L76.4919 120.394C76.5373 121.372 76.8281 122.122 77.2006 122.826V122.945L72.5301 123.164L72.521 123.146ZM70.7763 112.259C70.7491 111.637 70.4583 111.418 69.8131 111.445L68.9862 111.482L69.1316 114.663L69.9585 114.626C70.6037 114.599 70.8672 114.279 70.8399 113.676L70.7763 112.259Z" fill="#002930"/>
<path d="M78.6454 122.716L76.7281 107.378L88.0138 105.952L88.5045 109.846L82.6617 110.586L82.9252 112.707L86.6326 112.241L87.0143 115.257L83.3069 115.723L83.5795 117.908L89.4222 117.167L89.9402 121.29L78.6545 122.716H78.6454Z" fill="#002930"/>
<path d="M99.0632 119.608L98.1909 117.433L95.5194 117.935L95.4194 120.294L90.6126 121.199L91.7484 105.257L97.6911 104.133L104.47 118.584L99.0723 119.608H99.0632ZM95.683 110.559L95.6375 114.846L97.0914 114.571L95.683 110.559Z" fill="#002930"/>
<path d="M117.782 115.266L115.755 107.277V109.645L115.746 115.778L111.875 116.774L109.05 111.363L107.923 109.279L109.949 117.268L105.497 118.411L101.698 103.429L108.813 101.601L111.539 106.701L112.357 108.31L112.303 106.5L112.239 100.723L119.081 98.968L122.879 113.95L117.782 115.257V115.266Z" fill="#002930"/>
<path d="M141.044 107.908L138.363 100.12L138.563 102.478L139.063 108.593L135.292 109.91L132.03 104.754L130.739 102.771L133.42 110.559L129.077 112.067L124.043 97.4599L130.976 95.0467L134.111 99.9005L135.056 101.436L134.856 99.6354L134.311 93.8767L140.98 91.5549L146.014 106.162L141.044 107.899V107.908Z" fill="#002930"/>
<path d="M154.874 102.432L153.565 100.495L151.057 101.555L151.448 103.886L146.932 105.787L144.724 89.9552L150.303 87.606L159.944 100.312L154.874 102.442V102.432ZM149.685 94.2971L150.53 98.4927L151.893 97.9169L149.685 94.2879V94.2971Z" fill="#002930"/>
<path d="M168.131 96.244L164.179 92.1489L164.042 93.8034L165.814 97.4049L160.898 99.8638L154.056 86.0154L158.972 83.5565L161.716 89.105L161.353 82.3682L166.378 79.8545L166.341 87.4414L173.32 93.648L168.131 96.244Z" fill="#002930"/>
<path d="M174.637 92.8803L166.723 79.6261L176.473 73.7302L178.481 77.0941L173.438 80.1471L174.528 81.9753L177.736 80.0374L179.29 82.6426L176.082 84.5804L177.209 86.4726L182.252 83.4195L184.378 86.9845L174.628 92.8803H174.637Z" fill="#002930"/>
<path d="M193.038 80.5218C192.475 80.9606 191.357 80.3116 190.63 79.3792L189.421 77.8253C188.885 77.1306 188.404 76.8563 187.604 77.4779L187.15 77.8344L190.666 82.3774L186.35 85.7595L176.9 73.5565L182.997 68.7758C185.278 66.9933 187.686 66.8928 189.294 68.9678L189.858 69.699C190.812 70.9239 190.875 72.2219 189.803 73.5656C191.302 72.7064 192.547 73.2091 193.438 74.37L194.674 75.9605C195.273 76.7284 195.937 77.1763 196.654 77.5328L196.727 77.6242L193.029 80.5218H193.038ZM185.36 72.6424C184.978 72.1488 184.615 72.1397 184.106 72.5327L183.451 73.0446L185.396 75.5583L186.05 75.0464C186.559 74.6442 186.595 74.2421 186.223 73.7576L185.36 72.6424Z" fill="#002930"/>
</g>
<path d="M154.065 231.008V224.819L154.474 224.591L154.892 224.362L155.301 224.134L155.71 223.905L156.119 223.677L156.537 223.448L156.946 223.22V223.786L157.354 223.558V226.373L156.946 226.602V223.786L156.537 224.015L156.119 224.244L155.71 224.472L155.301 224.701L154.892 224.929L154.474 225.158V227.973L154.892 227.744L155.301 227.516L155.71 227.287L156.119 227.059L156.537 226.83L156.946 226.602V227.169L156.537 227.397L156.119 227.626L155.71 227.854L155.301 228.083L154.892 228.311L154.474 228.54V230.788L154.065 231.017V231.008Z" fill="#00EEC9"/>
<path d="M158.617 227.973L158.209 228.202V222.571L158.617 222.342V227.973ZM161.098 227.187L160.689 227.416L160.271 227.644L159.862 227.873L159.453 228.101L159.045 228.33L158.627 228.558V227.991L159.045 227.763L159.453 227.534L159.862 227.306L160.271 227.077L160.689 226.849L161.098 226.62V220.99L161.507 220.761V226.949L161.098 227.178V227.187Z" fill="#00EEC9"/>
<path d="M162.334 226.52V220.331L162.743 220.103V220.669L163.161 220.441V221.008L163.57 220.779V221.346L163.979 221.117V221.684L164.388 221.456V222.022L164.806 221.794V222.36L165.214 222.132V222.699L165.623 222.47V223.037L166.032 222.808V223.375L165.623 223.604V223.037L165.214 223.265V222.699L164.806 222.927V222.36L164.388 222.589V222.022L163.979 222.251V221.684L163.57 221.913V221.346L163.161 221.574V221.008L162.743 221.236V226.3L162.334 226.529V226.52ZM166.468 224.28V223.713L166.059 223.942V223.375L166.468 223.147V218.083L166.886 217.854V224.042L166.468 224.271V224.28Z" fill="#00EEC9"/>
<path d="M168.94 222.927V217.296L168.531 217.525L168.113 217.754L167.704 217.982L167.295 218.211V217.644L167.704 217.415L168.113 217.187L168.531 216.958L168.94 216.73L169.349 216.501L169.758 216.273L170.176 216.044L170.585 215.816L170.994 215.587V216.154L170.585 216.382L170.176 216.611L169.758 216.839L169.349 217.068V222.699L168.94 222.927Z" fill="#00EEC9"/>
<path d="M173.074 220.121L172.666 220.35V215.286L173.074 215.057V220.121ZM174.728 214.161L174.319 214.39L173.901 214.618L173.492 214.847L173.083 215.075V214.509L173.492 214.28L173.901 214.052L174.319 213.823L174.728 213.594V214.161ZM174.319 219.454L174.728 219.225V219.792L174.319 220.021L173.901 220.249L173.492 220.478L173.083 220.706V220.139L173.492 219.911L173.901 219.682L174.319 219.454ZM174.728 219.225V214.161L175.137 213.933V218.997L174.728 219.225Z" fill="#00EEC9"/>
<path d="M155.719 239.28L155.31 239.509L154.901 239.737L154.492 239.966L154.074 240.194V234.006L154.492 233.777L154.901 233.549L155.31 233.32L155.719 233.092L156.137 232.863V233.43L156.546 233.201V238.266L156.137 238.494V239.061L155.719 239.289V239.28ZM155.719 238.713L156.137 238.485V233.421L155.719 233.649L155.31 233.878L154.901 234.106L154.492 234.335V239.399L154.901 239.17L155.31 238.942L155.719 238.713Z" fill="#00EEC9"/>
<path d="M160.262 236.255L160.671 236.026V236.593L160.262 236.821L159.853 237.05L159.435 237.278L159.026 237.507L158.617 237.735L158.209 237.964L157.791 238.193V232.004L158.209 231.776L158.617 231.547L159.026 231.319L159.435 231.09L159.853 230.862L160.262 230.633L160.671 230.405V230.971L160.262 231.2L159.853 231.428L159.435 231.657L159.026 231.885L158.617 232.114L158.209 232.342V234.591L158.617 234.363L159.026 234.134L159.435 233.905V234.472L159.026 234.701L158.617 234.929L158.209 235.158V237.406L158.617 237.178L159.026 236.949L159.435 236.721L159.853 236.492L160.262 236.264V236.255Z" fill="#00EEC9"/>
<path d="M166.05 233.677V230.862L165.632 231.09L165.224 231.319L164.815 231.547L164.406 231.776V234.591L163.988 234.82V228.631L164.406 228.403V231.218L164.815 230.989L165.224 230.761L165.632 230.532L166.05 230.304V227.489L166.459 227.26V233.448L166.05 233.677Z" fill="#00EEC9"/>
<path d="M169.767 231.657V228.841L169.349 229.07L168.94 229.298L168.531 229.527L168.122 229.755V232.571L167.704 232.799V227.169L168.122 226.94V229.189L168.531 228.96L168.94 228.732L169.349 228.503L169.767 228.275V226.026L170.176 225.797V231.428L169.767 231.657ZM169.767 226.026L169.349 226.254L168.94 226.483L168.531 226.712L168.122 226.94V226.373L168.531 226.145L168.94 225.916L169.349 225.688L169.767 225.459V226.026Z" fill="#00EEC9"/>
<path d="M171.83 229.975L171.412 230.203V225.139L171.83 224.911V229.975ZM173.483 224.015L173.065 224.244L172.656 224.472L172.248 224.701L171.839 224.929V224.362L172.248 224.134L172.656 223.905L173.065 223.677L173.483 223.448V224.015ZM173.483 229.079L173.892 228.85V229.417L173.483 229.646L173.065 229.874L172.656 230.103L172.248 230.331L171.839 230.56V229.993L172.248 229.765L172.656 229.536L173.065 229.308L173.483 229.079ZM173.483 224.573V224.006L173.892 223.777V224.344L173.483 224.573Z" fill="#00EEC9"/>
<path d="M177.618 226.83L178.027 226.602V227.169L177.618 227.397L177.209 227.626L176.791 227.854L176.382 228.083L175.973 228.311L175.564 228.54L175.146 228.768V222.58L175.564 222.351L175.973 222.123L176.382 221.894L176.791 221.666L177.209 221.437L177.618 221.209L178.027 220.98V221.547L177.618 221.775L177.209 222.004L176.791 222.233L176.382 222.461L175.973 222.69L175.564 222.918V225.167L175.973 224.938L176.382 224.71L176.791 224.481V225.048L176.382 225.276L175.973 225.505L175.564 225.733V227.982L175.973 227.754L176.382 227.525L176.791 227.297L177.209 227.068L177.618 226.84V226.83Z" fill="#00EEC9"/>
<path d="M178.854 226.721V220.532L179.262 220.304L179.68 220.075L180.089 219.847L180.498 219.618L180.907 219.39V219.956L181.325 219.728V221.977L180.907 222.205V219.956L180.498 220.185L180.089 220.413L179.68 220.642L179.262 220.87V223.119L179.68 222.891L180.089 222.662L180.498 222.434L180.907 222.205V222.772L180.498 223L180.089 223.229L179.68 223.457V224.024L180.089 223.796V224.362L180.498 224.134V224.7L180.907 224.472V225.039L180.498 225.267V224.7L180.089 224.929V224.362L179.68 224.591V224.024L179.262 224.253V226.501L178.854 226.73V226.721ZM180.916 225.596V225.03L181.334 224.801V225.368L180.916 225.596Z" fill="#00EEC9"/>
<path d="M182.988 221.099L182.57 221.328V219.079L182.988 218.85V221.099ZM184.642 223.019L185.051 222.79V223.357L184.642 223.585L184.224 223.814L183.815 224.042L183.406 224.271L182.997 224.5L182.579 224.728V224.161L182.997 223.933L183.406 223.704L183.815 223.476L184.224 223.247L184.642 223.019ZM185.051 217.726L184.642 217.955L184.224 218.183L183.815 218.412L183.406 218.64L182.997 218.869V218.302L183.406 218.074L183.815 217.845L184.224 217.616L184.642 217.388L185.051 217.159V217.726ZM185.051 220.542L184.642 220.77L184.224 220.999L183.815 221.227L183.406 221.456L182.997 221.684V221.117L183.406 220.889L183.815 220.66L184.224 220.432L184.642 220.203L185.051 219.975V220.542ZM185.051 218.293V217.726L185.46 217.498V218.064L185.051 218.293ZM185.051 222.799V220.551L185.46 220.322V222.571L185.051 222.799Z" fill="#00EEC9"/>
<path d="M189.185 220.551L189.594 220.322V220.889L189.185 221.117L188.776 221.346L188.358 221.574L187.949 221.803L187.54 222.031L187.132 222.26L186.714 222.488V216.3L187.132 216.072L187.54 215.843L187.949 215.615L188.358 215.386L188.776 215.157L189.185 214.929L189.594 214.7V215.267L189.185 215.496L188.776 215.724L188.358 215.953L187.949 216.181L187.54 216.41L187.132 216.638V218.887L187.54 218.658L187.949 218.43L188.358 218.201V218.768L187.949 218.997L187.54 219.225L187.132 219.454V221.702L187.54 221.474L187.949 221.245L188.358 221.017L188.776 220.788L189.185 220.56V220.551Z" fill="#00EEC9"/>
<path d="M154.065 249.362V243.174L154.474 242.946L154.892 242.717L155.301 242.489L155.71 242.26L156.119 242.031V242.598L156.537 242.37V244.618L156.119 244.847V242.598L155.71 242.827L155.301 243.055L154.892 243.284L154.474 243.512V245.761L154.892 245.532L155.301 245.304L155.71 245.075L156.119 244.847V245.414L155.71 245.642L155.301 245.871L154.892 246.099V246.666L155.301 246.437V247.004L155.71 246.776V247.342L156.119 247.114V247.681L155.71 247.909V247.342L155.301 247.571V247.004L154.892 247.233V246.666L154.474 246.894V249.143L154.065 249.372V249.362ZM156.128 248.238V247.671L156.546 247.443V248.01L156.128 248.238Z" fill="#00EEC9"/>
<path d="M160.262 245.432L160.671 245.203V245.77L160.262 245.999L159.853 246.227L159.435 246.456L159.026 246.684L158.617 246.913L158.209 247.141L157.791 247.37V241.181L158.209 240.953L158.617 240.724L159.026 240.496L159.435 240.267L159.853 240.039L160.262 239.81L160.671 239.582V240.149L160.262 240.377L159.853 240.606L159.435 240.834L159.026 241.063L158.617 241.291L158.209 241.52V243.768L158.617 243.54L159.026 243.311L159.435 243.083V243.649L159.026 243.878L158.617 244.106L158.209 244.335V246.584L158.617 246.355L159.026 246.127L159.435 245.898L159.853 245.67L160.262 245.441V245.432Z" fill="#00EEC9"/>
<path d="M163.988 243.979V241.163L163.57 241.392L163.161 241.62L162.752 241.849L162.343 242.077V244.893L161.925 245.121V239.49L162.343 239.262V241.51L162.752 241.282L163.161 241.053L163.57 240.825L163.988 240.596V238.348L164.397 238.119V243.75L163.988 243.979ZM163.988 238.348L163.57 238.576L163.161 238.805L162.752 239.033L162.343 239.262V238.695L162.752 238.467L163.161 238.238L163.57 238.01L163.988 237.781V238.348Z" fill="#00EEC9"/>
<path d="M167.704 241.392L168.113 241.163V241.73L167.704 241.958L167.286 242.187L166.877 242.415L166.468 242.644L166.059 242.872L165.641 243.101L165.233 243.329V237.141L165.641 236.913V242.543L166.059 242.315L166.468 242.086L166.877 241.858L167.286 241.629L167.704 241.401V241.392Z" fill="#00EEC9"/>
<path d="M169.349 241.053V234.865L169.767 234.636V240.825L169.349 241.053Z" fill="#00EEC9"/>
<path d="M172.656 239.262L172.248 239.49L171.839 239.719L171.43 239.947L171.012 240.176V233.988L171.43 233.759L171.839 233.531L172.248 233.302L172.656 233.073L173.074 232.845V233.412L173.483 233.183V238.247L173.074 238.476V239.042L172.656 239.271V239.262ZM172.656 238.695L173.074 238.467V233.403L172.656 233.631L172.248 233.86L171.839 234.088L171.43 234.317V239.381L171.839 239.152L172.248 238.924L172.656 238.695Z" fill="#00EEC9"/>
<path d="M176.791 237.022V234.207L176.373 234.435L175.964 234.664L175.555 234.892L175.146 235.121V237.936L174.728 238.165V232.534L175.146 232.306V234.554L175.555 234.326L175.964 234.097L176.373 233.869L176.791 233.64V231.391L177.2 231.163V236.794L176.791 237.022ZM176.791 231.391L176.373 231.62L175.964 231.848L175.555 232.077L175.146 232.306V231.739L175.555 231.51L175.964 231.282L176.373 231.053L176.791 230.825V231.391Z" fill="#00EEC9"/>
<path d="M180.089 235.222L179.68 235.45L179.272 235.679L178.863 235.907L178.445 236.136V229.947L178.863 229.719L179.272 229.49L179.68 229.262L180.089 229.033L180.507 228.805V229.371L180.916 229.143V234.207L180.507 234.435V235.002L180.089 235.231V235.222ZM180.089 234.655L180.507 234.426V229.362L180.089 229.591L179.68 229.819L179.272 230.048L178.863 230.276V235.34L179.272 235.112L179.68 234.883L180.089 234.655Z" fill="#00EEC9"/>
<path d="M158.617 209.618L158.209 209.847V204.216L158.617 203.987V209.618ZM161.098 208.832L160.689 209.061L160.271 209.289L159.862 209.518L159.453 209.746L159.045 209.975L158.627 210.203V209.636L159.045 209.408L159.453 209.179L159.862 208.951L160.271 208.722L160.689 208.494L161.098 208.265V202.635L161.507 202.406V208.594L161.098 208.823V208.832Z" fill="#00EEC9"/>
<path d="M163.161 204.335L162.743 204.563V202.315L163.161 202.086V204.335ZM164.815 206.254L165.224 206.026V206.593L164.815 206.821L164.397 207.05L163.988 207.278L163.579 207.507L163.17 207.735L162.752 207.964V207.397L163.17 207.168L163.579 206.94L163.988 206.711L164.397 206.483L164.815 206.254ZM165.224 200.962L164.815 201.19L164.397 201.419L163.988 201.647L163.579 201.876L163.17 202.104V201.538L163.579 201.309L163.988 201.081L164.397 200.852L164.815 200.624L165.224 200.395V200.962ZM165.224 203.777L164.815 204.006L164.397 204.234L163.988 204.463L163.579 204.691L163.17 204.92V204.353L163.579 204.124L163.988 203.896L164.397 203.667L164.815 203.439L165.224 203.21V203.777ZM165.224 201.528V200.962L165.632 200.733V201.3L165.224 201.528ZM165.224 206.035V203.786L165.632 203.558V205.806L165.224 206.035Z" fill="#00EEC9"/>
<path d="M169.358 200.971L168.94 201.199V198.951L169.358 198.722V200.971ZM171.012 202.891L171.421 202.662V203.229L171.012 203.457L170.594 203.686L170.185 203.914L169.776 204.143L169.367 204.371L168.949 204.6V204.033L169.367 203.805L169.776 203.576L170.185 203.348L170.594 203.119L171.012 202.891ZM171.421 197.598L171.012 197.827L170.594 198.055L170.185 198.284L169.776 198.512L169.367 198.741V198.174L169.776 197.945L170.185 197.717L170.594 197.488L171.012 197.26L171.421 197.031V197.598ZM171.421 200.413L171.012 200.642L170.594 200.87L170.185 201.099L169.776 201.327L169.367 201.556V200.989L169.776 200.761L170.185 200.532L170.594 200.304L171.012 200.075L171.421 199.847V200.413ZM171.421 198.165V197.598L171.83 197.369V197.936L171.421 198.165ZM171.421 202.671V200.423L171.83 200.194V202.443L171.421 202.671Z" fill="#00EEC9"/>
<path d="M173.074 201.766L172.666 201.995V196.364L173.074 196.135V201.766ZM175.555 200.98L175.146 201.208L174.728 201.437L174.319 201.666L173.91 201.894L173.501 202.123L173.083 202.351V201.784L173.501 201.556L173.91 201.327L174.319 201.099L174.728 200.87L175.146 200.642L175.555 200.413V194.782L175.964 194.554V200.742L175.555 200.971V200.98Z" fill="#00EEC9"/>
<path d="M179.68 198.174L180.089 197.945V198.512L179.68 198.741L179.272 198.969L178.854 199.198L178.445 199.426L178.036 199.655L177.627 199.883L177.209 200.112V193.923L177.627 193.695L178.036 193.466L178.445 193.238L178.854 193.009L179.272 192.781L179.68 192.552L180.089 192.324V192.89L179.68 193.119L179.272 193.348L178.854 193.576L178.445 193.805L178.036 194.033L177.627 194.262V196.51L178.036 196.282L178.445 196.053L178.854 195.825V196.391L178.445 196.62L178.036 196.848L177.627 197.077V199.326L178.036 199.097L178.445 198.869L178.854 198.64L179.272 198.412L179.68 198.183V198.174Z" fill="#00EEC9"/>
<path d="M180.916 198.064V191.876L181.325 191.647V192.214L181.743 191.986V192.552L182.152 192.324V192.89L182.561 192.662V193.229L182.97 193V193.567L183.388 193.338V193.905L183.797 193.677V194.243L184.206 194.015V194.582L184.615 194.353V194.92L184.206 195.148V194.582L183.797 194.81V194.243L183.388 194.472V193.905L182.97 194.134V193.567L182.561 193.795V193.229L182.152 193.457V192.89L181.743 193.119V192.552L181.325 192.781V197.845L180.916 198.073V198.064ZM185.051 195.825V195.258L184.642 195.486V194.92L185.051 194.691V189.627L185.469 189.399V195.587L185.051 195.816V195.825Z" fill="#00EEC9"/>
<path d="M187.531 193.914L187.122 194.143V189.079L187.531 188.85V193.914ZM189.185 187.954L188.776 188.183L188.358 188.411L187.949 188.64L187.54 188.869V188.302L187.949 188.073L188.358 187.845L188.776 187.616L189.185 187.388V187.954ZM188.776 193.247L189.185 193.018V193.585L188.776 193.814L188.358 194.042L187.949 194.271L187.54 194.499V193.933L187.949 193.704L188.358 193.476L188.776 193.247ZM189.185 193.018V187.954L189.594 187.726V192.79L189.185 193.018Z" fill="#00EEC9"/>
<path d="M191.248 189.079L190.83 189.307V187.059L191.248 186.83V189.079ZM192.902 190.998L193.311 190.77V191.336L192.902 191.565L192.484 191.793L192.075 192.022L191.666 192.251L191.257 192.479L190.839 192.708V192.141L191.257 191.912L191.666 191.684L192.075 191.455L192.484 191.227L192.902 190.998ZM193.311 185.706L192.902 185.934L192.484 186.163L192.075 186.391L191.666 186.62L191.257 186.848V186.282L191.666 186.053L192.075 185.824L192.484 185.596L192.902 185.367L193.311 185.139V185.706ZM193.311 188.521L192.902 188.75L192.484 188.978L192.075 189.207L191.666 189.435L191.257 189.664V189.097L191.666 188.868L192.075 188.64L192.484 188.411L192.902 188.183L193.311 187.954V188.521ZM193.311 186.272V185.706L193.719 185.477V186.044L193.311 186.272ZM193.311 190.779V188.53L193.719 188.302V190.55L193.311 190.779Z" fill="#00EEC9"/>
<path d="M155.719 211.757V206.126L155.31 206.355L154.892 206.583L154.483 206.812L154.074 207.04V206.474L154.483 206.245L154.892 206.017L155.31 205.788L155.719 205.56L156.128 205.331L156.537 205.103L156.955 204.874L157.364 204.646L157.772 204.417V204.984L157.364 205.212L156.955 205.441L156.537 205.669L156.128 205.898V211.529L155.719 211.757Z" fill="#00EEC9"/>
<path d="M184.905 188.53L181.552 190.358V189.901L184.905 188.082V188.53Z" fill="#00EEC9"/>
<path d="M156.546 219.92L156.955 219.691V220.258L156.546 220.487L156.137 220.715L155.719 220.944L155.31 221.172L154.901 221.401L154.492 221.629L154.074 221.858V215.669L154.492 215.441L154.901 215.212L155.31 214.984L155.719 214.755L156.137 214.527L156.546 214.298L156.955 214.07V214.637L156.546 214.865L156.137 215.094L155.719 215.322L155.31 215.551L154.901 215.779L154.492 216.008V218.256L154.901 218.028L155.31 217.799L155.719 217.571V218.138L155.31 218.366L154.901 218.595L154.492 218.823V221.072L154.901 220.843L155.31 220.615L155.719 220.386L156.137 220.158L156.546 219.929V219.92Z" fill="#00EEC9"/>
<path d="M158.617 215.98L158.199 216.209V213.96L158.617 213.732V215.98ZM160.271 217.9L160.68 217.671V218.238L160.271 218.467L159.853 218.695L159.444 218.924L159.035 219.152L158.627 219.381L158.209 219.609V219.042L158.627 218.814L159.035 218.585L159.444 218.357L159.853 218.128L160.271 217.9ZM160.68 212.607L160.271 212.836L159.853 213.064L159.444 213.293L159.035 213.521L158.627 213.75V213.183L159.035 212.955L159.444 212.726L159.853 212.498L160.271 212.269L160.68 212.041V212.607ZM160.68 215.423L160.271 215.651L159.853 215.88L159.444 216.108L159.035 216.337L158.627 216.565V215.999L159.035 215.77L159.444 215.541L159.853 215.313L160.271 215.084L160.68 214.856V215.423ZM160.68 213.174V212.607L161.089 212.379V212.945L160.68 213.174ZM160.68 217.68V215.432L161.089 215.203V217.452L160.68 217.68Z" fill="#00EEC9"/>
<path d="M163.161 216.894V211.264L162.752 211.492L162.334 211.721L161.925 211.949L161.516 212.178V211.611L161.925 211.382L162.334 211.154L162.752 210.925L163.161 210.697L163.57 210.468L163.979 210.24L164.397 210.011L164.806 209.783L165.214 209.554V210.121L164.806 210.349L164.397 210.578L163.979 210.806L163.57 211.035V216.666L163.161 216.894Z" fill="#00EEC9"/>
<path d="M168.531 213.978V211.163L168.113 211.391L167.704 211.62L167.295 211.848L166.886 212.077V214.892L166.468 215.121V209.49L166.886 209.262V211.51L167.295 211.282L167.704 211.053L168.113 210.825L168.531 210.596V208.347L168.94 208.119V213.75L168.531 213.978ZM168.531 208.347L168.113 208.576L167.704 208.805L167.295 209.033L166.886 209.262V208.695L167.295 208.466L167.704 208.238L168.113 208.009L168.531 207.781V208.347Z" fill="#00EEC9"/>
<path d="M169.767 213.302V207.114L170.176 206.885V207.452L170.594 207.223V207.79L171.003 207.562V208.128L171.412 207.9V208.466L171.82 208.238V208.805L172.238 208.576V209.143L172.647 208.914V209.481L173.056 209.253V209.819L173.465 209.591V210.158L173.056 210.386V209.819L172.647 210.048V209.481L172.238 209.71V209.143L171.82 209.371V208.805L171.412 209.033V208.466L171.003 208.695V208.128L170.594 208.357V207.79L170.176 208.019V213.083L169.767 213.311V213.302ZM173.901 211.062V210.496L173.492 210.724V210.158L173.901 209.929V204.865L174.319 204.636V210.825L173.901 211.053V211.062Z" fill="#00EEC9"/>
<path d="M179.68 207.918V205.103L179.262 205.331L178.854 205.56L178.445 205.788L178.036 206.017V208.832L177.618 209.061V203.43L178.036 203.201V205.45L178.445 205.221L178.854 204.993L179.262 204.764L179.68 204.536V202.287L180.089 202.059V207.689L179.68 207.918ZM179.68 202.287L179.262 202.516L178.854 202.744L178.445 202.973L178.036 203.201V202.635L178.445 202.406L178.854 202.178L179.262 201.949L179.68 201.72V202.287Z" fill="#00EEC9"/>
<path d="M167.813 207.708L167.422 207.918L167.85 206.702L168.24 206.492L167.813 207.708Z" fill="#00EEC9"/>
<path d="M153.229 192.022L152.911 192.196V188.439L153.229 188.265V192.022ZM154.501 187.57L154.183 187.744L153.865 187.918L153.547 188.091L153.229 188.265V187.845L153.547 187.671L153.865 187.497L154.183 187.324L154.501 187.15V187.57ZM154.501 191.327L154.819 191.154V191.574L154.501 191.748L154.183 191.921L153.865 192.095L153.547 192.269L153.229 192.442V192.022L153.547 191.848L153.865 191.675L154.183 191.501L154.501 191.327ZM154.501 187.991V187.57L154.819 187.397V187.817L154.501 187.991Z" fill="#00EEC9"/>
<path d="M157.373 190.185V188.101L157.055 188.274L156.737 188.448L156.418 188.622L156.1 188.795V190.879L155.782 191.053V186.885L156.1 186.711V188.384L156.418 188.21L156.737 188.037L157.055 187.863L157.373 187.689V186.016L157.691 185.843V190.011L157.373 190.185ZM157.373 186.016L157.055 186.19L156.737 186.364L156.418 186.537L156.1 186.711V186.291L156.418 186.117L156.737 185.943L157.055 185.77L157.373 185.596V186.016Z" fill="#00EEC9"/>
<path d="M158.327 189.664V185.075L158.645 184.901L158.963 184.728L159.281 184.554L159.599 184.38L159.917 184.207V184.627L160.235 184.453V186.126L159.917 186.3V184.627L159.599 184.801L159.281 184.974L158.963 185.148L158.645 185.322V186.995L158.963 186.821L159.281 186.647L159.599 186.473L159.917 186.3V186.72L159.599 186.894L159.281 187.068L158.963 187.241V187.662L159.281 187.488V187.909L159.599 187.735V188.155L159.917 187.982V188.402L159.599 188.576V188.155L159.281 188.329V187.909L158.963 188.082V187.662L158.645 187.835V189.508L158.327 189.682V189.664ZM159.917 188.795V188.375L160.235 188.201V188.622L159.917 188.795Z" fill="#00EEC9"/>
<path d="M161.516 187.516L161.198 187.689V183.932L161.516 183.759V187.516ZM162.788 183.064L162.47 183.238L162.152 183.411L161.834 183.585L161.516 183.759V183.338L161.834 183.165L162.152 182.991L162.47 182.817L162.788 182.644V183.064ZM162.788 187.232L162.47 187.406L162.152 187.58L161.834 187.753L161.516 187.927V187.506L161.834 187.333L162.152 187.159L162.47 186.985L162.788 186.812V185.139L162.47 185.313V184.892L162.788 184.719L163.106 184.545V187.049L162.788 187.223V187.232ZM162.788 183.475V183.055L163.106 182.881V183.302L162.788 183.475Z" fill="#00EEC9"/>
<path d="M165.66 185.678V183.594L165.342 183.768L165.024 183.942L164.706 184.115L164.388 184.289V186.373L164.069 186.547V182.378L164.388 182.205V183.878L164.706 183.704L165.024 183.53L165.342 183.357L165.66 183.183V181.51L165.978 181.336V185.505L165.66 185.678ZM165.66 181.51L165.342 181.684L165.024 181.857L164.706 182.031L164.388 182.205V181.784L164.706 181.611L165.024 181.437L165.342 181.263L165.66 181.09V181.51Z" fill="#00EEC9"/>
<path d="M166.623 185.157V180.568L166.941 180.395V180.815L167.259 180.642V181.062L167.577 180.888V181.309L167.895 181.135V181.556L168.213 181.382V181.803L168.531 181.629V182.049L168.849 181.876V182.296L169.167 182.122V182.543L169.485 182.369V182.79L169.167 182.963V182.543L168.849 182.717V182.296L168.531 182.47V182.049L168.213 182.223V181.803L167.895 181.976V181.556L167.577 181.729V181.309L167.259 181.483V181.062L166.941 181.236V184.993L166.623 185.166V185.157ZM169.812 183.42V183L169.494 183.174V182.753L169.812 182.579V178.823L170.13 178.649V183.238L169.812 183.411V183.42Z" fill="#00EEC9"/>
<path d="M172.357 182.04L172.039 182.214L171.72 182.388L171.402 182.561L171.084 182.735V178.146L171.402 177.973L171.72 177.799L172.039 177.625L172.357 177.452L172.675 177.278V177.698L172.993 177.525V181.282L172.675 181.455V181.876L172.357 182.049V182.04ZM172.357 181.62L172.675 181.446V177.689L172.357 177.863L172.039 178.037L171.72 178.21L171.402 178.384V182.141L171.72 181.967L172.039 181.793L172.357 181.62Z" fill="#00EEC9"/>
<path d="M174.592 180.413L174.274 180.587V176.83L174.592 176.656V180.413ZM175.864 175.962L175.546 176.135L175.228 176.309L174.91 176.483L174.592 176.656V176.236L174.91 176.062L175.228 175.888L175.546 175.715L175.864 175.541V175.962ZM175.546 179.892L175.864 179.718V180.139L175.546 180.313L175.228 180.486L174.91 180.66L174.592 180.834V180.413L174.91 180.239L175.228 180.066L175.546 179.892ZM175.864 179.718V175.962L176.182 175.788V179.545L175.864 179.718Z" fill="#00EEC9"/>
<path d="M176.818 179.618V179.197L177.136 179.024V179.444L176.818 179.618Z" fill="#00EEC9"/>
<path d="M177.772 179.097V178.676L178.09 178.503V178.923L177.772 179.097Z" fill="#00EEC9"/>
<path d="M178.735 178.576V178.155L179.053 177.982V178.402L178.735 178.576Z" fill="#00EEC9"/>
<path d="M92.3391 316.968L31.5581 301.968C30.1951 301.63 29.241 300.405 29.241 298.997V282.535C29.241 280.551 31.0856 279.089 33.0029 279.564L93.7838 294.564C95.1468 294.902 96.101 296.127 96.101 297.535V313.998C96.101 315.981 94.2564 317.444 92.3391 316.968Z" fill="#002930"/>
<path d="M64.4007 291.195L64.2368 291.907L74.1784 294.222L74.3423 293.509L64.4007 291.195Z" fill="#00EEC9"/>
<path d="M53.0192 288.539L52.8553 289.251L61.7257 291.316L61.8896 290.604L53.0192 288.539Z" fill="#00EEC9"/>
<path d="M34.6864 284.274L34.5225 284.986L48.0584 288.137L48.2223 287.425L34.6864 284.274Z" fill="#00EEC9"/>
<path d="M84.6922 300.303L84.5284 301.015L91.186 302.564L91.3497 301.852L84.6922 300.303Z" fill="#00EEC9"/>
<path d="M71.6265 297.289L71.4626 298.001L80.82 300.179L80.9839 299.467L71.6265 297.289Z" fill="#00EEC9"/>
<path d="M50.2879 292.312L50.124 293.025L67.0947 296.976L67.2586 296.263L50.2879 292.312Z" fill="#00EEC9"/>
<path d="M34.6897 288.697L34.5258 289.41L42.3605 291.234L42.5244 290.521L34.6897 288.697Z" fill="#00EEC9"/>
<path d="M59.6835 298.912L59.5196 299.624L64.5657 300.799L64.7296 300.086L59.6835 298.912Z" fill="#00EEC9"/>
<path d="M34.6925 293.092L34.5286 293.804L52.5262 297.994L52.6901 297.282L34.6925 293.092Z" fill="#00EEC9"/>
<path d="M66.5898 304.928L66.4259 305.64L74.1809 307.445L74.3448 306.733L66.5898 304.928Z" fill="#00EEC9"/>
<path d="M56.3743 302.519L56.2105 303.232L60.5308 304.237L60.6946 303.524L56.3743 302.519Z" fill="#00EEC9"/>
<path d="M42.5285 299.316L42.3646 300.028L52.2089 302.32L52.3728 301.608L42.5285 299.316Z" fill="#00EEC9"/>
<path d="M34.6902 297.487L34.5263 298.199L38.4303 299.108L38.5942 298.396L34.6902 297.487Z" fill="#00EEC9"/>
<path d="M132.739 371L132.602 370.964L17.6827 343.056L17.8554 342.343L132.639 370.223L158.972 356.11V308.266L159.163 308.157L195.091 289.4V337.343H194.374V290.588L159.69 308.705V356.539L132.739 371Z" fill="#002930"/>
<path d="M194.773 337.727L184.297 334.756L184.487 334.053L194.692 336.95L215.655 325.707L216 326.347L194.773 337.727Z" fill="#002930"/>
</g>
<defs>
<clipPath id="clip0_130_1071">
<rect width="216" height="371" fill="white"/>
</clipPath>
</defs>
</svg>
